<svg width="51" height="23" viewBox="0 0 51 23" fill="none" xmlns="http://www.w3.org/2000/svg">
<path fill-rule="evenodd" clip-rule="evenodd" d="M14.3193 0.350383C13.9017 0.544655 12.6381 1.63239 11.5068 2.77086C9.8729 4.41557 9.46579 4.93048 9.51678 5.28828C9.64888 6.21399 10.2034 5.9107 12.5784 3.61434C15.0501 1.22423 15.4998 0.980918 16.7902 1.33551C17.4842 1.5262 19.0848 2.99455 19.3473 3.68148C19.6111 4.37237 19.5742 5.39617 19.2639 5.98709C19.1168 6.26718 17.5924 7.87567 15.8762 9.56131L12.7562 12.6263H11.7473C10.9718 12.6263 10.5755 12.5139 10.0332 12.1398C9.45196 11.7388 9.25845 11.6904 8.93322 11.8635C8.25508 12.2247 8.44063 12.7253 9.48627 13.3562C10.0173 13.6767 10.4557 13.7566 11.6848 13.7572C13.5924 13.7581 13.6491 13.72 17.4867 9.86403C20.4515 6.8847 20.8609 6.26416 20.8539 4.75771C20.8461 3.08622 19.5804 1.25724 17.8087 0.357929C16.8747 -0.116433 15.3291 -0.119641 14.3193 0.350383ZM7.49621 7.14084C6.47957 7.61463 0.69135 13.4264 0.301298 14.3649C-0.427821 16.1188 0.19194 18.1545 1.88349 19.5627C3.17627 20.6389 3.42133 20.6861 3.42133 19.8585C3.42133 19.2941 3.26516 19.0301 2.48809 18.2809C1.48358 17.3122 1.14262 16.5032 1.29519 15.4496C1.37327 14.9102 1.92538 14.2548 4.44308 11.7136C6.12231 10.0187 7.72648 8.51205 8.00794 8.36569C9.06513 7.81588 10.848 8.20914 11.4509 9.12486C11.8304 9.70107 12.6734 9.96702 12.9152 9.58677C13.1986 9.14164 13.1101 8.88419 12.4359 8.19349C11.1221 6.84698 9.06665 6.40902 7.49621 7.14084ZM26.5913 18.4308C26.1768 18.4976 26.1648 18.5623 26.1648 20.7498V23H26.6307C27.0806 23 27.0985 22.95 27.1519 21.5382L27.2073 20.0765L27.9405 21.5382C28.6009 22.8544 28.7282 23 29.2199 23H29.7659V20.7366V18.4733H29.2921C28.8306 18.4733 28.8182 18.5087 28.8148 19.8407L28.8114 21.2082L28.1069 19.8439C27.3648 18.4067 27.2728 18.3211 26.5913 18.4308ZM7.21191 20.7366V23H8.72815C10.1045 23 10.2444 22.966 10.2444 22.6326C10.2444 22.3225 10.0895 22.2563 9.24935 22.2082L8.25432 22.1512L8.20012 20.3123C8.14648 18.4982 8.13947 18.4733 7.67891 18.4733H7.21191V20.7366ZM11.4073 20.7366L11.3931 23H12.9982C14.4771 23 14.6036 22.9704 14.6036 22.6228C14.6036 22.2912 14.4771 22.2455 13.5611 22.2455H12.5187V21.5854C12.5187 20.9288 12.5233 20.9253 13.3716 20.9253C14.0981 20.9253 14.2245 20.8694 14.2245 20.548C14.2245 20.2266 14.0981 20.1708 13.3716 20.1708C12.593 20.1708 12.5187 20.1306 12.5187 19.7091C12.5187 19.2853 12.6 19.2428 13.5121 19.1904C14.2796 19.1464 14.5196 19.0585 14.5683 18.8034C14.6244 18.5101 14.4525 18.4733 13.0265 18.4733H11.4215L11.4073 20.7366ZM16.435 20.6097C16.0531 21.7848 15.7407 22.8033 15.7407 22.8731C15.7407 22.9428 15.9352 23 16.173 23C16.4793 23 16.6679 22.835 16.8199 22.4342C17.0104 21.9319 17.122 21.8683 17.8138 21.8683C18.5281 21.8683 18.6026 21.9155 18.7069 22.4342C18.795 22.8723 18.9222 23 19.2707 23C19.8575 23 19.8448 22.8519 19.0583 20.5265C18.694 19.4492 18.3955 18.5463 18.3949 18.5204C18.3945 18.4946 18.1095 18.4733 17.7617 18.4733H17.129L16.435 20.6097ZM21.2371 20.7366V23H21.7109C22.1461 23 22.1847 22.9308 22.1847 22.1512C22.1847 21.5954 22.267 21.3025 22.423 21.3025C22.5541 21.3025 22.8932 21.6844 23.1765 22.1512C23.5689 22.7976 23.8058 23 24.17 23C24.764 23 24.7635 22.9453 24.1568 21.9151L23.6651 21.0801L24.062 20.8034C24.3488 20.6035 24.4591 20.3238 24.4591 19.7964C24.4591 18.7177 24.1064 18.4733 22.5503 18.4733H21.2371V20.7366ZM34.1251 20.7366V23H35.5465C36.8283 23 36.968 22.964 36.968 22.6331C36.968 22.3293 36.8133 22.2563 36.0677 22.2088L35.1675 22.1512L35.1133 20.3123C35.0596 18.4982 35.0526 18.4733 34.5921 18.4733H34.1251V20.7366ZM38.1052 18.7621C38.1052 18.9211 38.2331 19.0999 38.3895 19.1595C38.609 19.2434 38.6738 19.6074 38.6738 20.7568C38.6738 21.9543 38.6182 22.2455 38.3895 22.2455C38.2316 22.2455 38.1052 22.4132 38.1052 22.6228C38.1052 22.9581 38.2316 23 39.2424 23C40.2531 23 40.3795 22.9581 40.3795 22.6228C40.3795 22.3714 40.2531 22.2455 40.0005 22.2455C39.6534 22.2455 39.6214 22.1197 39.6214 20.7587C39.6214 19.4303 39.6618 19.2611 40.0005 19.173C40.209 19.1189 40.3795 18.9392 40.3795 18.7739C40.3795 18.5323 40.1565 18.4733 39.2424 18.4733C38.3476 18.4733 38.1052 18.5348 38.1052 18.7621ZM41.8958 20.7366V23H42.3696C42.8366 23 42.8434 22.9776 42.8434 21.4515V19.9028L43.6385 21.4515C44.3485 22.8344 44.4902 23 44.9652 23H45.4968V20.7366V18.4733H45.023C44.5623 18.4733 44.5488 18.5108 44.538 19.8407L44.5266 21.2082L43.8331 19.8407C43.1842 18.5612 43.0997 18.4733 42.5178 18.4733H41.8958V20.7366ZM47.2845 18.7219C47.2318 18.8584 47.213 19.8558 47.243 20.9381C47.2943 22.7993 47.3197 22.9089 47.7122 22.9645C48.0759 23.016 48.1345 22.9244 48.1861 22.2246C48.2185 21.7855 48.3303 21.3985 48.4345 21.3647C48.5388 21.3308 48.8665 21.685 49.1627 22.1516C49.6299 22.8876 49.7872 23 50.3507 23H51L50.066 21.7274L49.132 20.4547L49.9824 19.4641L50.833 18.4733L50.2023 18.4804C49.6843 18.4863 49.4532 18.6385 48.9084 19.3326L48.245 20.1778L48.1872 19.3254C48.1396 18.6217 48.0642 18.4733 47.7549 18.4733C47.5489 18.4733 47.3372 18.5851 47.2845 18.7219ZM23.4167 19.7936C23.4167 20.1878 23.3155 20.2747 22.8007 20.3241C22.2243 20.3796 22.1847 20.3453 22.1847 19.7936C22.1847 19.2419 22.2243 19.2076 22.8007 19.263C23.3155 19.3124 23.4167 19.3994 23.4167 19.7936ZM18.0879 20.5952C18.1982 21.0563 18.1589 21.1139 17.7344 21.1139C17.1866 21.1139 17.1768 21.0786 17.4853 20.2295C17.7245 19.571 17.8633 19.6553 18.0879 20.5952Z" fill="white"/>
</svg>
