<svg width="290" height="87" viewBox="0 0 290 87" fill="none" xmlns="http://www.w3.org/2000/svg">
<path fill-rule="evenodd" clip-rule="evenodd" d="M22.5201 1.39446C12.9879 4.079 7.06866 8.84435 2.63914 17.3982C-2.48191 27.2864 -0.00285352 39.84 8.79604 48.5748C14.5533 54.291 21.4978 56.7502 33.2365 57.2313C38.664 57.454 44.2545 57.3765 45.6618 57.0599C47.8547 56.5666 48.1767 56.0847 47.9188 53.6872L47.6171 50.8896L37.2247 50.3607C23.9895 49.6865 17.4592 47.1055 12.2304 40.4794C8.97451 36.3526 8.82126 35.8263 8.82126 28.7357C8.82126 21.9112 9.05791 20.997 11.762 17.3982C13.4709 15.1242 16.8472 12.3318 19.8189 10.7338C24.2116 8.37287 26.228 7.89702 34.0871 7.36898C39.1218 7.02972 48.8673 6.91054 55.7439 7.10279C67.3041 7.42553 68.6706 7.64737 73.8479 10.0327C80.6653 13.1748 85.4896 18.9031 86.4809 25.0325C87.4304 30.9044 88.4779 32.3414 91.5699 32.0213C94.1382 31.7551 94.1702 31.6707 94.0412 25.4753C93.9355 20.3767 93.4253 18.4551 91.3216 15.2356C87.6166 9.56552 82.5479 5.33601 76.3125 2.71411C71.0226 0.488884 70.3786 0.430601 49.072 0.24879C31.7341 0.100035 26.2775 0.335782 22.5201 1.39446ZM99.5909 1.59889C98.3223 3.72407 99.3349 6.93143 101.317 7.06888C102.188 7.1289 110.976 7.24546 120.844 7.3281C135.487 7.44989 139.492 7.75523 142.615 8.98528C156.501 14.4544 161.669 26.9828 154.842 38.6222L151.985 43.4954H156.837C161.616 43.4954 161.717 43.4397 163.494 39.7983C170.991 24.4435 161.197 5.91537 143.188 1.38315C139.036 0.338391 133.144 0 119.118 0C102.082 0 100.466 0.132224 99.5909 1.59889ZM52.9525 27.4004C51.6761 30.4111 53.3104 37.4695 56.5033 42.7299C60.2287 48.8697 60.9871 49.2594 65.5825 47.4013C67.7037 46.5427 69.4398 45.725 69.4398 45.5832C69.4398 45.4414 68.2895 44.2279 66.8831 42.8882C63.6592 39.8131 60.7602 34.2309 60.732 31.0418C60.7 27.4012 59.0386 25.2273 56.288 25.2273C54.6052 25.2273 53.5946 25.8859 52.9525 27.4004ZM66.5301 76.5519V86.9908H73.8043C80.4316 86.9908 81.0785 86.836 81.0785 85.251C81.0785 83.7434 80.4316 83.5112 76.229 83.5112H71.3796V74.8121V66.113H68.9548H66.5301V76.5519ZM88.8377 76.5519V86.9908H96.1119C102.674 86.9908 103.386 86.8247 103.386 85.2962C103.386 83.8661 102.594 83.5608 98.2942 83.3389C93.3487 83.084 93.2022 83.0014 93.2022 80.4665C93.2022 77.9699 93.403 77.8455 97.8092 77.5915C101.576 77.3748 102.416 77.0269 102.416 75.682C102.416 74.3371 101.576 73.9892 97.8092 73.7725C93.9471 73.5498 93.2022 73.2262 93.2022 71.7674C93.2022 70.2816 93.9461 69.9893 98.2942 69.7649C102.594 69.5431 103.386 69.2377 103.386 67.8076C103.386 66.2792 102.674 66.113 96.1119 66.113H88.8377V76.5519ZM114.341 74.5946C109.619 87.7859 109.762 86.9908 112.101 86.9908C113.512 86.9908 114.473 86.174 115.17 84.3811C116.085 82.0262 116.592 81.7714 120.359 81.7714C124.126 81.7714 124.634 82.0262 125.548 84.3811C126.231 86.1374 127.214 86.9908 128.553 86.9908C131.22 86.9908 131.122 86.2992 126.907 75.4689C123.36 66.3575 123.195 66.1226 120.323 66.1174C117.45 66.113 117.302 66.3227 114.341 74.5946ZM138.302 76.6128C138.302 87.003 138.325 87.1091 140.485 86.8342C142.347 86.5967 142.711 85.9495 142.963 82.4238C143.125 80.1507 143.675 78.2917 144.184 78.2917C144.693 78.2917 146.452 80.249 148.094 82.6413C150.344 85.9208 151.654 86.9908 153.419 86.9908C156.357 86.9908 156.346 86.428 153.336 82.4542C150.418 78.604 150.429 78.7241 152.851 76.5519C155.328 74.3302 155.416 69.5004 153.017 67.5527C151.739 66.5158 149.433 66.113 144.773 66.113H138.302V76.6128ZM163.52 76.4971V86.9908H165.944C168.33 86.9908 168.37 86.876 168.426 79.8141L168.484 72.6373L172.521 79.8141C176.121 86.2114 176.852 86.9908 179.253 86.9908H181.948V76.5519V66.113H179.566C177.288 66.113 177.171 66.3827 176.898 72.2467L176.613 78.3796L173.219 72.4642C170.186 67.1795 169.487 66.5193 166.672 66.2757L163.52 66.0025V76.4971ZM204.255 76.5519V86.9908H211.53C218.157 86.9908 218.804 86.836 218.804 85.251C218.804 83.7434 218.157 83.5112 213.954 83.5112H209.105V74.8121V66.113H206.68H204.255V76.5519ZM224.623 67.3161C224.623 67.9781 225.496 68.7245 226.563 68.975C228.286 69.3795 228.503 70.1616 228.503 76.0047C228.503 81.6896 228.24 82.7065 226.563 83.5112C225.496 84.0235 224.623 85.0161 224.623 85.7164C224.623 86.6811 225.919 86.9908 229.958 86.9908C234.645 86.9908 235.292 86.7803 235.292 85.251C235.292 84.2845 234.645 83.5112 233.837 83.5112C232.665 83.5112 232.382 82.155 232.382 76.5249C232.382 71.1167 232.711 69.4248 233.837 69.0376C234.637 68.7619 235.292 67.9911 235.292 67.3248C235.292 66.4358 233.87 66.113 229.958 66.113C226.062 66.113 224.623 66.4375 224.623 67.3161ZM244.021 76.5519V86.9908H246.549H249.076L248.723 80.0315C248.53 76.2039 248.615 73.0723 248.911 73.0723C249.209 73.0723 251.155 76.2039 253.235 80.0315C256.624 86.2653 257.301 86.9908 259.733 86.9908H262.449V76.491C262.449 66.1008 262.427 65.9947 260.267 66.2696C258.3 66.521 258.037 67.1421 257.6 72.5799L257.115 78.6119L253.72 72.3807C250.552 66.5662 250.115 66.1478 247.173 66.1313L244.021 66.113V76.5519ZM272.148 76.5519C272.148 86.4106 272.256 86.9908 274.088 86.9908C275.737 86.9908 276.028 86.4106 276.028 83.1275C276.028 81.0023 276.423 79.0451 276.906 78.7771C277.389 78.5092 279.352 80.2481 281.269 82.6404C283.855 85.8686 285.379 86.9908 287.18 86.9908C288.514 86.9908 289.606 86.7585 289.606 86.4741C289.606 86.1896 287.619 83.613 285.189 80.7483C280.29 74.9713 280.227 75.4863 286.599 69.3752L290 66.113H286.994C284.609 66.113 283.174 66.9664 280.042 70.2451L276.096 74.3771L276.062 70.2451C276.033 66.7028 275.75 66.113 274.088 66.113C272.256 66.113 272.148 66.6932 272.148 76.5519ZM149.763 71.9849C149.508 73.9778 148.931 74.4224 146.304 74.6494C143.367 74.9034 143.152 74.7399 143.152 72.2572C143.152 69.7823 143.398 69.5926 146.611 69.5926C149.812 69.5926 150.047 69.771 149.763 71.9849ZM122.74 77.2043C122.765 77.8028 121.693 78.2917 120.359 78.2917C117.599 78.2917 117.496 77.9385 119.08 73.8648L120.225 70.9184L121.461 73.5177C122.14 74.9469 122.716 76.6067 122.74 77.2043Z" fill="black"/>
</svg>
